# xmcd
#
# Track frame offsets: 
#        150
#        3233
#        26276
#        49114
#        74657
#        105832
#        125882
#
# Disc length: 2048 seconds
#
# Revision: 0
# Processed by: cddbd v1.5.2PL0 Copyright (c) Steve Scherf et al.
# Submitted via: ExactAudioCopy v0.99pb4
#
DISCID=5407fe07
DTITLE=King, Chris Thomas - Live On Beale Street
DYEAR=1997
DGENRE=Blues
TTITLE0=Blues Stock - Introduction [Live '97]
TTITLE1=I'll Play The Blues For You [Live '97]
TTITLE2=Blues From Da Hood [Live '97]
TTITLE3=My Pain, Your Pleasure [Live '97]
TTITLE4=C'est La Vie [Live '97]
TTITLE5=L. A. Angel [Live '97]
TTITLE6=KKKrossroads [Live '97]
EXTD=
EXTT0=
EXTT1=
EXTT2=
EXTT3=
EXTT4=
EXTT5=
EXTT6=
PLAYORDER=
